<!DOCTYPE svg PUBLIC "-//W3C//DTD SVG 1.1//EN" "http://www.w3.org/Graphics/SVG/1.1/DTD/svg11.dtd">
<!-- Uploaded to: SVG Repo, www.svgrepo.com, Transformed by: SVG Repo Mixer Tools -->
<svg width="64px" height="64px" viewBox="0 0 13.00 13.00" xmlns="http://www.w3.org/2000/svg" fill="#000000" stroke="#000000" stroke-width="0.00013000000000000002">
<g id="SVGRepo_bgCarrier" stroke-width="0"/>
<g id="SVGRepo_tracerCarrier" stroke-linecap="round" stroke-linejoin="round"/>
<g id="SVGRepo_iconCarrier"> <path id="Path_2" data-name="Path 2" d="M106.974,837h-12l2-11.031h1.989a1.98,1.98,0,0,1,3.96,0h2.051Zm-6-12.011c-1.042-.01-1.04.338-1.04.98h2.049C101.983,825.367,102.013,825,100.974,824.989ZM102.925,827v.994h-.943V827H99.933v.994h-.974V827H97.848l-1.75,9h9.719l-1.75-9ZM101,824c-.021,0-.041.005-.062.006s-.041-.006-.063-.006Z" transform="translate(-94.974 -824)" fill="#444"/> </g>
</svg>